<?xml version="1.0" encoding="UTF-8" standalone="no"?><!DOCTYPE svg PUBLIC "-//W3C//DTD SVG 1.1//EN" "http://www.w3.org/Graphics/SVG/1.1/DTD/svg11.dtd"><svg width="100%" height="100%" viewBox="0 0 477 499" version="1.1" xmlns="http://www.w3.org/2000/svg" xmlns:xlink="http://www.w3.org/1999/xlink" xml:space="preserve" xmlns:serif="http://www.serif.com/" style="fill-rule:evenodd;clip-rule:evenodd;stroke-linejoin:round;stroke-miterlimit:2;"><path d="M82.942,381.508l-5.542,4.375c10.292,11.25 21.708,21.375 34.125,30.25l12.542,0c-15.167,-9.75 -28.959,-21.416 -41.125,-34.625Zm310,0.5c-12.042,13 -25.667,24.459 -40.625,34.125l12.458,0c12.25,-8.75 23.542,-18.708 33.708,-29.75l-5.541,-4.375" style="fill:#00b9f2;fill-rule:nonzero;"/><path d="M69.775,391.883l-5.583,4.417c6.379,7 13.125,13.625 20.291,19.833l11.088,0c-9.213,-7.375 -17.838,-15.5 -25.796,-24.25Zm336.333,0.5c-7.833,8.542 -16.25,16.459 -25.291,23.75l11,0c7,-6.041 13.625,-12.5 19.875,-19.333l-5.584,-4.417" style="fill:#00b9f2;fill-rule:nonzero;"/><rect x="89.942" y="163.788" width="296.446" height="47.329" style="fill:#8dd8f8;"/><rect x="89.942" y="226.883" width="296.446" height="7.896" style="fill:#60bb4d;"/><rect x="89.942" y="242.654" width="296.446" height="15.762" style="fill:#005aaa;"/><path d="M152.713,282.079l0,39.438l7.558,0l0,-28.475l31.096,28.475l6.316,0l0,-39.438l-7.583,0l0,28.475l-31.071,-28.475l-6.316,0" style="fill:#020d50;fill-rule:nonzero;"/><path d="M386.388,321.517l0,-6.967l-28.801,0l0,-32.471l-7.583,0l0,39.438l36.384,0" style="fill:#020d50;fill-rule:nonzero;"/><path d="M230.358,321.517l5.767,0l21.65,-39.438l-8.521,0l-15.921,30.013l-15.908,-30.013l-8.667,0l21.6,39.438" style="fill:#020d50;fill-rule:nonzero;"/><path d="M307.996,282.079c-6.963,0 -12.575,0.946 -16.083,4.225c-2.817,2.571 -4.288,6.25 -4.288,11.254l0,8.463c0,5.008 1.471,8.683 4.288,11.262c3.508,3.284 9.12,4.234 16.083,4.234l25.471,0l0,-22.763l-23.921,0l0,7.096l16.333,0l0,8.7l-19.904,0c-3.775,0 -6.729,-0.642 -8.675,-2.512c-1.554,-1.563 -2.108,-3.746 -2.108,-6.634l0,-7.204c0,-2.904 0.554,-5.092 2.108,-6.654c1.946,-1.871 4.9,-2.5 8.675,-2.5l27.492,0l0,-6.967l-25.471,0" style="fill:#020d50;fill-rule:nonzero;"/><path d="M136.15,297.558c0,-5.004 -1.488,-8.683 -4.287,-11.254c-3.517,-3.279 -9.138,-4.225 -16.08,-4.225l-25.85,0l0,39.438l25.85,0c6.942,0 12.563,-0.95 16.08,-4.234c2.799,-2.579 4.287,-6.254 4.287,-11.262l0,-8.463Zm-38.646,-8.512l20.304,0c3.75,0 6.721,0.629 8.667,2.5c1.571,1.479 2.117,3.679 2.117,6.737l0,7.03c0,3.045 -0.546,5.241 -2.117,6.725c-1.946,1.87 -4.917,2.512 -8.667,2.512l-20.304,0l0,-25.504" style="fill:#020d50;"/><rect x="263.846" y="297.492" width="8.887" height="8.888" style="fill:#020d50;"/><path d="M28.567,331.733c-3.409,2.609 -3.821,6.575 -1.996,10.28c3.133,6.354 9.696,6.462 15.266,3.716c6.092,-3.004 9.851,-8.204 6.696,-14.596c-2.304,-4.675 -6.92,-5.741 -11.5,-3.904l-1.75,-3.55c6.988,-2.608 13.071,-0.45 16.388,6.279c4.096,8.296 -0.046,15.359 -7.821,19.192c-7.738,3.817 -16.233,2.521 -20.288,-5.7c-2.745,-5.571 -2.025,-11.646 3.255,-15.271l1.75,3.554" style="fill:#231f20;fill-rule:nonzero;"/><path d="M16.029,324.946l-6.675,-19.433l3.15,-1.08l5.392,15.688l8.946,-3.075l-5.025,-14.625l3.154,-1.083l5.025,14.625l9.737,-3.346l-5.433,-15.809l3.154,-1.079l6.721,19.55l-28.146,9.667" style="fill:#231f20;fill-rule:nonzero;"/><path d="M18.363,283.708c-0.755,-3.629 -2.342,-6.529 -6.58,-5.645c-2.854,0.595 -4.65,2.587 -3.891,6.216l2.012,9.617l10.146,-2.121l-1.688,-8.067Zm-10.908,14.742l-2.862,-13.692c-1.142,-5.462 1.125,-9.466 5.77,-10.437c3.505,-0.733 6.721,0.212 8.434,3.512l0.079,-0.016c-0.054,-3.521 2.288,-4.734 5.083,-5.613c2.8,-0.841 6.013,-1.346 7.667,-3.391l0.904,4.32c-0.95,1.346 -4.217,1.392 -6.95,2.559c-2.767,1.004 -5.029,2.2 -4.242,5.95l1.975,9.454l12.43,-2.6l0.808,3.875l-29.096,6.079" style="fill:#231f20;fill-rule:nonzero;"/><path d="M4.571,261.946l0.896,9.879l-3.325,0.304l-2.142,-23.708l3.321,-0.3l0.896,9.879l26.321,-2.375l0.358,3.942l-26.325,2.379" style="fill:#231f20;fill-rule:nonzero;"/><path d="M0.183,243.629l-0.05,-3.954l29.734,-0.362l0.045,3.954l-29.729,0.362" style="fill:#231f20;fill-rule:nonzero;"/><path d="M0.071,231.767l1.283,-19.5l3.329,0.221l-1.025,15.55l9.438,0.616l0.896,-13.633l3.329,0.217l-0.9,13.637l13.6,0.896l-0.258,3.95l-29.692,-1.954" style="fill:#231f20;fill-rule:nonzero;"/><path d="M2.271,206.488l0.566,-3.921l29.459,4.221l-0.563,3.92l-29.462,-4.22" style="fill:#231f20;fill-rule:nonzero;"/><path d="M17.567,176.079c-4.284,-0.171 -7.138,2.613 -8.1,6.621c-1.654,6.888 3.316,11.163 9.35,12.613c6.6,1.583 12.808,-0.009 14.475,-6.934c1.212,-5.062 -1.65,-8.833 -6.342,-10.346l0.925,-3.845c7.033,2.458 10.325,8.004 8.579,15.295c-2.162,8.988 -9.854,11.767 -18.279,9.746c-8.383,-2.012 -14.079,-8.437 -11.938,-17.346c1.45,-6.033 5.884,-10.237 12.255,-9.654l-0.925,3.85" style="fill:#231f20;fill-rule:nonzero;"/><path d="M12.292,162.888l7.3,-19.18l3.112,1.184l-5.896,15.487l8.834,3.363l5.496,-14.434l3.112,1.184l-5.496,14.433l9.613,3.658l5.937,-15.6l3.113,1.184l-7.346,19.3l-27.779,-10.579" style="fill:#231f20;fill-rule:nonzero;"/><path d="M40.421,132.683c1.737,-3.275 2.375,-6.525 -1.454,-8.55c-2.575,-1.37 -5.234,-0.983 -6.971,2.292l-4.604,8.688l9.166,4.858l3.863,-7.288Zm-17.829,4.367l6.558,-12.371c2.617,-4.933 6.925,-6.562 11.121,-4.337c3.162,1.679 5.037,4.462 4.242,8.096l0.075,0.041c2.208,-2.746 4.783,-2.179 7.499,-1.071c2.692,1.146 5.484,2.813 8.071,2.3l-2.071,3.9c-1.591,0.43 -4.133,-1.625 -6.983,-2.479c-2.775,-0.996 -5.275,-1.521 -7.075,1.867l-4.529,8.537l11.229,5.955l-1.854,3.495l-26.283,-13.933" style="fill:#231f20;fill-rule:nonzero;"/><path d="M37.45,110.717l2.154,-3.317l24.925,16.208l-2.158,3.313l-24.921,-16.204" style="fill:#231f20;fill-rule:nonzero;"/><path d="M44.108,100.296l2.613,-3.3l28.654,2.696l0.05,-0.067l-18.921,-14.979l2.329,-2.946l23.334,18.479l-2.692,3.396l-28.375,-2.633l-0.054,0.062l18.725,14.829l-2.329,2.938l-23.334,-18.475" style="fill:#231f20;fill-rule:nonzero;"/><path d="M99.046,78.45c0.496,3.846 -1.329,7.371 -3.867,9.783c-6.433,6.121 -15.266,4.517 -20.612,-1.1c-5.98,-6.283 -7.709,-14.991 -0.884,-21.491c4.713,-4.479 10.467,-5.929 16.084,-1.663l-2.871,2.729c-3.675,-2.716 -7.713,-1.691 -10.913,1.355c-5.225,4.966 -3.087,11.566 1.309,16.187c4.283,4.5 10.787,6.138 15.587,1.567c4.438,-4.221 4.138,-9.863 0.221,-13.617l-6.888,6.55l-2.295,-2.412l9.45,-8.996l10.808,11.354l-1.817,1.725l-3.312,-1.971" style="fill:#231f20;fill-rule:nonzero;"/><path d="M113.858,56.404l8.459,-5.496l-11.717,-8.941l-0.071,0.046l3.329,14.391Zm-7.029,-16.262l3.671,-2.384l25.962,18.634l-3.67,2.383l-7.609,-5.746l-10.562,6.854l2.083,9.334l-3.425,2.225l-6.45,-31.3" style="fill:#231f20;fill-rule:nonzero;"/><path d="M124.846,29.167l17.504,-8.679l1.479,2.987l-13.958,6.917l4.2,8.475l12.242,-6.071l1.479,2.987l-12.242,6.067l6.05,12.204l-3.546,1.759l-13.208,-26.646" style="fill:#231f20;fill-rule:nonzero;"/><path d="M159.363,14.038l3.741,-1.28l9.625,28.142l-3.746,1.283l-9.62,-28.145" style="fill:#231f20;fill-rule:nonzero;"/><path d="M170.933,10.017l4.088,-0.984l20.862,19.792l0.08,-0.021l-5.63,-23.446l3.646,-0.879l6.942,28.917l-4.213,1.012l-20.675,-19.575l-0.083,0.017l5.571,23.208l-3.642,0.875l-6.946,-28.916" style="fill:#231f20;fill-rule:nonzero;"/><path d="M202.696,3.158l19.412,-2.175l0.375,3.309l-15.483,1.737l1.054,9.396l13.575,-1.525l0.371,3.313l-13.575,1.525l1.517,13.533l-3.929,0.442l-3.317,-29.555" style="fill:#231f20;fill-rule:nonzero;"/><path d="M240.95,27.821c7.246,-0.013 10.275,-6.263 10.267,-12.263c-0.009,-5.995 -3.059,-12.237 -10.305,-12.225c-7.245,0.009 -10.275,6.263 -10.27,12.259c0.012,5.996 3.062,12.237 10.308,12.229Zm-0.046,-27.821c9.454,-0.012 14.254,7.475 14.267,15.554c0.012,8.079 -4.763,15.584 -14.217,15.596c-9.454,0.013 -14.254,-7.475 -14.266,-15.554c-0.013,-8.075 4.766,-15.579 14.216,-15.596" style="fill:#231f20;fill-rule:nonzero;"/><path d="M273.238,17.108c3.666,0.555 6.941,0.084 7.587,-4.2c0.438,-2.887 -0.8,-5.266 -4.471,-5.82l-9.721,-1.471l-1.554,10.262l8.159,1.229Zm-10.021,-15.379l13.841,2.092c5.521,0.837 8.488,4.362 7.775,9.058c-0.533,3.542 -2.545,6.234 -6.237,6.684l-0.013,0.083c3.325,1.179 3.642,3.796 3.496,6.725c-0.191,2.921 -0.837,6.108 0.504,8.375l-4.37,-0.658c-0.93,-1.363 0.166,-4.442 0.025,-7.413c0.025,-2.946 -0.309,-5.483 -4.096,-6.058l-9.559,-1.442l-1.9,12.563l-3.916,-0.592l4.45,-29.417" style="fill:#231f20;fill-rule:nonzero;"/><path d="M294.333,6.888l5.171,1.595l1.596,26.642l16.358,-21.108l5.171,1.596l-8.758,28.416l-3.583,-1.104l7.287,-23.642l-0.079,-0.02l-16.163,20.904l-3.225,-0.996l-1.587,-26.379l-0.079,-0.025l-7.288,23.641l-3.583,-1.1l8.762,-28.42" style="fill:#231f20;fill-rule:nonzero;"/><path d="M328.55,37.392l9.092,4.354l1.521,-14.654l-0.08,-0.038l-10.533,10.338Zm10.204,-14.467l3.946,1.888l-2.363,31.85l-3.945,-1.888l0.941,-9.483l-11.35,-5.438l-6.879,6.642l-3.679,-1.763l23.329,-21.808" style="fill:#231f20;fill-rule:nonzero;"/><path d="M357.888,36.779l-8.488,-5.133l1.721,-2.85l20.371,12.304l-1.725,2.854l-8.492,-5.129l-13.667,22.613l-3.383,-2.046l13.663,-22.613" style="fill:#231f20;fill-rule:nonzero;"/><path d="M375.233,44.096l3.217,2.304l-17.346,24.15l-3.208,-2.308l17.337,-24.146" style="fill:#231f20;fill-rule:nonzero;"/><path d="M376.9,79.854c5.454,4.767 11.85,2.063 15.8,-2.45c3.946,-4.512 5.767,-11.216 0.312,-15.983c-5.454,-4.767 -11.854,-2.067 -15.795,2.446c-3.946,4.516 -5.771,11.216 -0.317,15.987Zm18.304,-20.941c7.117,6.22 5.788,15.016 0.471,21.095c-5.317,6.08 -13.854,8.571 -20.967,2.35c-7.116,-6.22 -5.791,-15.012 -0.471,-21.091c5.313,-6.084 13.85,-8.571 20.967,-2.354" style="fill:#231f20;fill-rule:nonzero;"/><path d="M410.754,74.375l2.754,3.183l-8.029,27.613l0.054,0.062l18.259,-15.754l2.45,2.838l-22.517,19.429l-2.829,-3.279l7.921,-27.354l-0.055,-0.063l-18.07,15.588l-2.45,-2.834l22.512,-19.429" style="fill:#231f20;fill-rule:nonzero;"/><path d="M433.717,118.675c3.3,-2.717 3.279,-6.092 1.033,-9.508c-1.829,-2.788 -4.671,-4.909 -7.908,-2.779c-3.067,2.012 -0.913,6.283 0.816,10.883c1.7,4.567 2.917,9.454 -1.962,12.658c-5.292,3.479 -10.829,-0.316 -13.804,-4.841c-3.663,-5.575 -4.038,-12.067 2.025,-16.05l2.062,3.137c-4.183,2.746 -3.704,7.421 -1.229,11.183c1.967,2.996 5.079,5.688 8.671,3.33c3.412,-2.242 1.4,-6.605 -0.342,-11.146c-1.737,-4.546 -3.221,-9.304 1.342,-12.304c5.054,-3.317 10.237,-0.288 13.212,4.237c3.338,5.088 3.48,10.533 -1.858,14.338l-2.058,-3.138" style="fill:#231f20;fill-rule:nonzero;"/><path d="M447.029,143.625c3.608,-2.292 4,-5.646 2.192,-9.308c-1.479,-2.992 -4.038,-5.446 -7.513,-3.734c-3.291,1.625 -1.671,6.125 -0.525,10.905c1.134,4.741 1.738,9.737 -3.5,12.32c-5.679,2.8 -10.708,-1.641 -13.104,-6.5c-2.95,-5.983 -2.525,-12.47 3.983,-15.679l1.659,3.367c-4.488,2.212 -4.588,6.908 -2.596,10.946c1.583,3.216 4.346,6.271 8.196,4.371c3.666,-1.809 2.2,-6.384 1.029,-11.105c-1.163,-4.725 -2.05,-9.629 2.846,-12.045c5.421,-2.675 10.191,0.97 12.587,5.829c2.696,5.458 2.163,10.879 -3.6,13.996l-1.654,-3.363" style="fill:#231f20;fill-rule:nonzero;"/><path d="M459.213,150.317l1.441,3.683l-27.691,10.804l-1.438,-3.683l27.688,-10.804" style="fill:#231f20;fill-rule:nonzero;"/><path d="M463.7,161.663l1.108,3.795l-14.237,4.167l18.471,10.313l1.441,4.916l-15.041,-8.666l-13.375,17.5l-1.404,-4.8l11.42,-14.538l-5.833,-3.462l-9.996,2.925l-1.112,-3.8l28.558,-8.35" style="fill:#231f20;fill-rule:nonzero;"/><path d="M471.6,190.825l0.621,3.908l-14.646,2.309l16.992,12.583l0.796,5.058l-13.796,-10.512l-15.496,15.637l-0.775,-4.937l13.175,-12.954l-5.342,-4.175l-10.279,1.621l-0.621,-3.909l29.371,-4.629" style="fill:#231f20;fill-rule:nonzero;"/><path d="M475.704,220.6l0.725,20.529l-3.333,0.117l-0.579,-16.575l-9.454,0.337l0.541,15.446l-3.333,0.117l-0.542,-15.45l-10.283,0.362l0.583,16.7l-3.329,0.117l-0.725,-20.654l29.729,-1.046" style="fill:#231f20;fill-rule:nonzero;"/><path d="M461.554,259.417c-0.316,3.7 0.367,6.933 4.684,7.304c2.904,0.25 5.199,-1.142 5.516,-4.838l0.838,-9.795l-10.334,-0.888l-0.704,8.217Zm14.7,-10.992l-1.196,13.95c-0.475,5.563 -3.804,8.75 -8.537,8.346c-3.571,-0.308 -6.384,-2.138 -7.071,-5.796l-0.083,-0.004c-0.963,3.387 -3.555,3.875 -6.484,3.917c-2.929,0 -6.154,-0.442 -8.329,1.045l0.379,-4.404c1.296,-1.016 4.442,-0.121 7.396,-0.454c2.942,-0.167 5.454,-0.658 5.784,-4.479l0.824,-9.633l-12.662,-1.084l0.337,-3.946l29.642,2.542" style="fill:#231f20;fill-rule:nonzero;"/><path d="M473.046,279.367l-0.867,3.866l-12.491,-2.791l-3.421,15.3l12.491,2.791l-0.862,3.867l-29.05,-6.492l0.862,-3.866l13.305,2.971l3.416,-15.3l-13.304,-2.971l0.867,-3.867l29.054,6.492" style="fill:#231f20;fill-rule:nonzero;"/><path d="M465.213,310.958l-6.988,19.309l-3.133,-1.134l5.641,-15.587l-8.887,-3.217l-5.263,14.529l-3.133,-1.133l5.262,-14.529l-9.675,-3.504l-5.687,15.704l-3.133,-1.133l7.033,-19.425l27.962,10.12" style="fill:#231f20;fill-rule:nonzero;"/><path d="M429.971,328.533l-3.008,5.859c-1.234,2.408 -3.892,9.237 5.854,14.237c6.3,3.229 11.316,2.854 14.646,-3.633l3.041,-5.929l-20.533,-10.534Zm25.304,8.534l-4.658,9.079c-4.184,8.154 -10.596,10.621 -19.125,6.25c-8.859,-4.542 -11.867,-11 -7.342,-19.821l4.663,-9.083l26.462,13.575" style="fill:#231f20;fill-rule:nonzero;"/><rect x="120.717" y="433.908" width="3.563" height="26.779" style="fill:#231f20;"/><path d="M145.767,441.75c-0.409,-3.829 -2.963,-5.479 -6.634,-5.479c-3.004,0 -6.004,1.087 -6.004,4.575c0,3.304 4.279,3.787 8.592,4.762c4.275,0.98 8.55,2.475 8.55,7.73c0,5.7 -5.588,7.991 -10.463,7.991c-6.004,0 -11.066,-2.925 -11.066,-9.454l3.375,0c0,4.5 3.75,6.45 7.8,6.45c3.225,0 6.791,-1.012 6.791,-4.875c0,-3.679 -4.275,-4.312 -8.554,-5.254c-4.275,-0.933 -8.587,-2.175 -8.587,-7.088c0,-5.437 4.837,-7.841 9.716,-7.841c5.471,0 9.638,2.587 9.863,8.483l-3.379,0" style="fill:#231f20;fill-rule:nonzero;"/><path d="M165.904,458.325c6.529,0 9.267,-5.629 9.267,-11.025c0,-5.404 -2.738,-11.029 -9.267,-11.029c-6.525,0 -9.262,5.625 -9.262,11.029c0,5.396 2.737,11.025 9.262,11.025Zm0,-25.058c8.517,0 12.829,6.75 12.829,14.033c0,7.275 -4.312,14.029 -12.829,14.029c-8.516,0 -12.829,-6.754 -12.829,-14.029c0,-7.283 4.313,-14.033 12.829,-14.033" style="fill:#231f20;fill-rule:nonzero;"/><path d="M190.579,433.267l2.738,0l-11.105,28.062l-2.737,0l11.104,-28.062" style="fill:#231f20;fill-rule:nonzero;"/><rect x="195.717" y="433.908" width="3.562" height="26.779" style="fill:#231f20;"/><path d="M205.279,433.908l18.492,0l0,2.996l-14.929,0l0,8.517l13.916,0l0,3l-13.916,0l0,9.267l15.041,0l0,3l-18.604,0l0,-26.78" style="fill:#231f20;fill-rule:nonzero;"/><path d="M247.017,441.971c-0.75,-3.788 -3.788,-5.7 -7.504,-5.7c-6.376,0 -9.075,5.25 -9.075,10.842c0,6.108 2.699,11.212 9.112,11.212c4.692,0 7.392,-3.3 7.729,-7.725l3.563,0c-0.675,6.675 -4.838,10.729 -11.588,10.729c-8.329,0 -12.383,-6.154 -12.383,-13.958c0,-7.763 4.429,-14.104 12.679,-14.104c5.592,0 10.204,3.004 11.033,8.704l-3.566,0" style="fill:#231f20;fill-rule:nonzero;"/><path d="M264.413,443.508c-0.263,-5.4 2.925,-9.412 8.55,-9.412c4.654,0 8.329,2.7 8.329,7.654c0,4.688 -3.15,7.05 -6.454,9.113c-3.338,2.02 -6.826,3.712 -7.463,7.016l13.654,0l0,2.809l-17.371,0c0.525,-6.3 3.717,-8.55 7.467,-10.875c4.5,-2.78 6.788,-4.425 6.788,-8.105c0,-2.891 -2.321,-4.804 -5.138,-4.804c-3.713,0 -5.288,3.417 -5.175,6.604l-3.188,0" style="fill:#231f20;fill-rule:nonzero;"/><path d="M302.7,437.283c-5.362,5.33 -9.712,15.075 -10.2,23.405l-3.563,0c0.601,-9 4.913,-17.213 10.5,-23.142l-13.949,0l0,-3l17.212,0l0,2.737" style="fill:#231f20;fill-rule:nonzero;"/><path d="M314.892,458.325c5.441,0 5.479,-6.75 5.479,-10.725c0,-3.937 -0.038,-10.696 -5.479,-10.696c-5.438,0 -5.475,6.759 -5.475,10.696c0,3.975 0.037,10.725 5.475,10.725Zm0,-24.229c8.325,0 8.85,7.654 8.85,13.542c0,5.85 -0.525,13.504 -8.85,13.504c-8.329,0 -8.854,-7.654 -8.854,-13.504c0,-5.888 0.524,-13.542 8.854,-13.542" style="fill:#231f20;fill-rule:nonzero;"/><path d="M335.742,458.325c5.441,0 5.479,-6.75 5.479,-10.725c0,-3.937 -0.038,-10.696 -5.479,-10.696c-5.442,0 -5.475,6.759 -5.475,10.696c0,3.975 0.033,10.725 5.475,10.725Zm0,-24.229c8.325,0 8.85,7.654 8.85,13.542c0,5.85 -0.525,13.504 -8.85,13.504c-8.329,0 -8.854,-7.654 -8.854,-13.504c0,-5.888 0.524,-13.542 8.854,-13.542" style="fill:#231f20;fill-rule:nonzero;"/><path d="M359.517,460.688l-3.188,0l0,-19.055l-6.904,0l0,-2.55c3.637,0 6.942,-0.975 7.654,-4.987l2.438,0l0,26.592" style="fill:#231f20;fill-rule:nonzero;"/><path d="M18.567,496.558l3.296,0c1.354,0 5.004,-0.375 5.004,-5.858c0,-3.546 -1.313,-5.696 -4.963,-5.696l-3.337,0l0,11.554Zm-1.979,-13.22l5.108,0c4.587,0 7.15,2.291 7.15,7.087c0,4.983 -2.188,7.8 -7.15,7.8l-5.109,0l0,-14.887" style="fill:#231f20;fill-rule:nonzero;"/><path d="M30.9,483.338l2.104,0l7.842,12.07l0.041,0l0.001,-12.07l1.875,0l0,14.887l-2.167,0l-7.779,-11.946l-0.042,0l0,11.946l-1.875,0l0,-14.887" style="fill:#231f20;fill-rule:nonzero;"/><path d="M51.488,498.225l-2.255,0l-5.254,-14.887l2.15,0l4.25,12.908l0.046,0l4.292,-12.908l2.066,0l-5.295,14.887" style="fill:#231f20;fill-rule:nonzero;"/><path d="M74.621,496.371c-1.15,1.562 -3.025,2.208 -4.775,2.208c-4.442,0 -7.092,-3.625 -7.092,-7.508c0,-4.338 2.375,-8.088 7.092,-8.088c3.254,0 5.837,1.459 6.4,4.942l-1.979,0c-0.396,-2.25 -2.213,-3.275 -4.421,-3.275c-3.608,0 -5.108,3.129 -5.108,6.321c0,3.104 1.791,5.942 5.108,5.942c3.067,0 4.9,-2.15 4.775,-4.859l-4.754,0l0,-1.671l6.525,0l0,7.842l-1.25,0l-0.521,-1.854" style="fill:#231f20;fill-rule:nonzero;"/><path d="M78.963,483.338l1.979,0l0,13.22l7.883,0l0,1.667l-9.862,0l-0.001,-14.887" style="fill:#231f20;fill-rule:nonzero;"/><path d="M97.65,496.558l4.963,0c1.712,0 2.795,-1.041 2.795,-2.67c0,-1.938 -1.566,-2.48 -3.233,-2.48l-4.525,0l0,5.15Zm0,-6.82l3.963,0c2.254,0 3.17,-0.813 3.17,-2.375c0,-2.067 -1.462,-2.359 -3.17,-2.359l-3.963,0l0,4.734Zm-1.983,-6.4l5.404,0c1.312,0 3.046,0 3.942,0.541c0.979,0.584 1.754,1.646 1.754,3.104c0,1.588 -0.838,2.775 -2.213,3.338l0,0.046c1.834,0.371 2.834,1.75 2.834,3.583c0,2.192 -1.563,4.275 -4.525,4.275l-7.196,0l0,-14.887" style="fill:#231f20;fill-rule:nonzero;"/><path d="M121.492,492.846c0,3.754 -2.146,5.733 -5.859,5.733c-3.837,0 -6.108,-1.771 -6.108,-5.733l0,-9.508l1.979,0l0,9.508c0,2.629 1.5,4.067 4.129,4.067c2.5,0 3.879,-1.438 3.879,-4.067l0,-9.508l1.98,0l0,9.508" style="fill:#231f20;fill-rule:nonzero;"/><path d="M132.925,487.696c-0.229,-2.129 -1.646,-3.046 -3.692,-3.046c-1.666,0 -3.337,0.604 -3.337,2.546c0,1.833 2.379,2.104 4.779,2.65c2.375,0.537 4.754,1.375 4.754,4.292c0,3.17 -3.108,4.441 -5.821,4.441c-3.333,0 -6.15,-1.625 -6.15,-5.254l1.88,0c0,2.504 2.083,3.588 4.337,3.588c1.792,0 3.771,-0.563 3.771,-2.713c0,-2.042 -2.375,-2.396 -4.754,-2.917c-2.375,-0.525 -4.775,-1.212 -4.775,-3.941c0,-3.025 2.691,-4.359 5.404,-4.359c3.042,0 5.358,1.438 5.483,4.713l-1.879,0" style="fill:#231f20;fill-rule:nonzero;"/><rect x="137.563" y="483.338" width="1.983" height="14.887" style="fill:#231f20;"/><path d="M142.521,483.338l2.104,0l7.842,12.07l0.045,0l0,-12.07l1.875,0l0,14.887l-2.166,0l-7.779,-11.946l-0.042,0l0,11.946l-1.879,0l0,-14.887" style="fill:#231f20;fill-rule:nonzero;"/><path d="M157.25,483.338l10.283,0l0,1.666l-8.304,0l0,4.734l7.738,0l0,1.67l-7.738,0l0,5.15l8.363,0l0,1.667l-10.342,0l0,-14.887" style="fill:#231f20;fill-rule:nonzero;"/><path d="M178.258,487.696c-0.229,-2.129 -1.646,-3.046 -3.691,-3.046c-1.667,0 -3.338,0.604 -3.338,2.546c0,1.833 2.379,2.104 4.779,2.65c2.375,0.537 4.754,1.375 4.754,4.292c0,3.17 -3.108,4.441 -5.82,4.441c-3.334,0 -6.15,-1.625 -6.15,-5.254l1.875,0c0,2.504 2.087,3.588 4.337,3.588c1.796,0 3.775,-0.563 3.775,-2.713c0,-2.042 -2.379,-2.396 -4.754,-2.917c-2.375,-0.525 -4.775,-1.212 -4.775,-3.941c0,-3.025 2.692,-4.359 5.404,-4.359c3.042,0 5.359,1.438 5.479,4.713l-1.875,0" style="fill:#231f20;fill-rule:nonzero;"/><path d="M191.425,487.696c-0.229,-2.129 -1.65,-3.046 -3.692,-3.046c-1.666,0 -3.337,0.604 -3.337,2.546c0,1.833 2.379,2.104 4.775,2.65c2.379,0.537 4.758,1.375 4.758,4.292c0,3.17 -3.112,4.441 -5.821,4.441c-3.337,0 -6.154,-1.625 -6.154,-5.254l1.879,0c0,2.504 2.088,3.588 4.338,3.588c1.791,0 3.775,-0.563 3.775,-2.713c0,-2.042 -2.375,-2.396 -4.754,-2.917c-2.38,-0.525 -4.775,-1.212 -4.775,-3.941c0,-3.025 2.687,-4.359 5.4,-4.359c3.045,0 5.358,1.438 5.483,4.713l-1.875,0" style="fill:#231f20;fill-rule:nonzero;"/><path d="M204,492.075l5.05,0l-2.483,-6.946l-0.042,0l-2.525,6.946Zm1.483,-8.737l2.188,0l5.821,14.887l-2.192,0l-1.625,-4.483l-6.296,0l-1.671,4.483l-2.046,0l5.821,-14.887" style="fill:#231f20;fill-rule:nonzero;"/><path d="M223.217,487.696c-0.23,-2.129 -1.65,-3.046 -3.692,-3.046c-1.667,0 -3.338,0.604 -3.338,2.546c0,1.833 2.38,2.104 4.775,2.65c2.38,0.537 4.755,1.375 4.755,4.292c0,3.17 -3.109,4.441 -5.817,4.441c-3.337,0 -6.154,-1.625 -6.154,-5.254l1.879,0c0,2.504 2.083,3.588 4.338,3.588c1.791,0 3.775,-0.563 3.775,-2.713c0,-2.042 -2.38,-2.396 -4.755,-2.917c-2.379,-0.525 -4.775,-1.212 -4.775,-3.941c0,-3.025 2.688,-4.359 5.4,-4.359c3.046,0 5.359,1.438 5.484,4.713l-1.875,0" style="fill:#231f20;fill-rule:nonzero;"/><path d="M236.379,487.696c-0.229,-2.129 -1.646,-3.046 -3.692,-3.046c-1.666,0 -3.337,0.604 -3.337,2.546c0,1.833 2.379,2.104 4.779,2.65c2.375,0.537 4.754,1.375 4.754,4.292c0,3.17 -3.108,4.441 -5.816,4.441c-3.338,0 -6.155,-1.625 -6.155,-5.254l1.88,0c0,2.504 2.083,3.588 4.337,3.588c1.792,0 3.771,-0.563 3.771,-2.713c0,-2.042 -2.375,-2.396 -4.754,-2.917c-2.375,-0.525 -4.775,-1.212 -4.775,-3.941c0,-3.025 2.692,-4.359 5.404,-4.359c3.042,0 5.358,1.438 5.483,4.713l-1.879,0" style="fill:#231f20;fill-rule:nonzero;"/><path d="M252.821,492.846c0,3.754 -2.15,5.733 -5.858,5.733c-3.838,0 -6.113,-1.771 -6.113,-5.733l0,-9.508l1.979,0l0,9.508c0,2.629 1.504,4.067 4.134,4.067c2.499,0 3.875,-1.438 3.875,-4.067l0,-9.508l1.983,0l0,9.508" style="fill:#231f20;fill-rule:nonzero;"/><path d="M261.75,490.196c1.858,0 3.442,-0.479 3.442,-2.646c0,-1.462 -0.792,-2.546 -2.65,-2.546l-4.921,0l0,5.192l4.129,0Zm-6.108,-6.858l7.008,0c2.792,0 4.525,1.52 4.525,3.9c0,1.791 -0.796,3.275 -2.587,3.775l0,0.041c1.729,0.334 2.087,1.604 2.233,3.063c0.121,1.458 0.037,3.087 0.875,4.108l-2.213,0c-0.562,-0.604 -0.25,-2.208 -0.541,-3.671c-0.209,-1.458 -0.563,-2.687 -2.484,-2.687l-4.837,0l0,6.358l-1.979,0l0,-14.887" style="fill:#231f20;fill-rule:nonzero;"/><path d="M272.142,492.075l5.046,0l-2.48,-6.946l-0.045,0l-2.521,6.946Zm1.479,-8.737l2.192,0l5.816,14.887l-2.187,0l-1.629,-4.483l-6.296,0l-1.667,4.483l-2.046,0l5.817,-14.887" style="fill:#231f20;fill-rule:nonzero;"/><path d="M282.725,483.338l2.104,0l7.842,12.07l0.042,0l0,-12.07l1.879,0l0,14.887l-2.171,0l-7.779,-11.946l-0.042,0l0,11.946l-1.875,0l0,-14.887" style="fill:#231f20;fill-rule:nonzero;"/><path d="M307.921,487.821c-0.417,-2.108 -2.104,-3.171 -4.171,-3.171c-3.546,0 -5.046,2.921 -5.046,6.029c0,3.396 1.5,6.234 5.067,6.234c2.608,0 4.108,-1.838 4.296,-4.296l1.983,0c-0.379,3.712 -2.692,5.962 -6.446,5.962c-4.629,0 -6.883,-3.421 -6.883,-7.758c0,-4.313 2.462,-7.838 7.05,-7.838c3.108,0 5.671,1.667 6.133,4.838l-1.983,0" style="fill:#231f20;fill-rule:nonzero;"/><path d="M312.163,483.338l10.279,0l0,1.666l-8.3,0l0,4.734l7.737,0l0,1.67l-7.737,0l0,5.15l8.362,0l0,1.667l-10.341,0l0,-14.887" style="fill:#231f20;fill-rule:nonzero;"/><path d="M331.996,496.558l3.296,0c1.354,0 5.004,-0.375 5.004,-5.858c0,-3.546 -1.317,-5.696 -4.967,-5.696l-3.333,0l0,11.554Zm-1.979,-13.22l5.108,0c4.588,0 7.15,2.291 7.15,7.087c0,4.983 -2.188,7.8 -7.15,7.8l-5.108,0l0,-14.887" style="fill:#231f20;fill-rule:nonzero;"/><path d="M344.346,483.338l10.283,0l0,1.666l-8.3,0l0,4.734l7.738,0l0,1.67l-7.738,0l0,5.15l8.363,0l0,1.667l-10.346,0l0,-14.887" style="fill:#231f20;fill-rule:nonzero;"/><path d="M356.721,483.338l2.108,0l7.842,12.07l0.042,0l0,-12.07l1.875,0l0,14.887l-2.167,0l-7.779,-11.946l-0.042,0l0,11.946l-1.879,0l0,-14.887" style="fill:#231f20;fill-rule:nonzero;"/><path d="M371.496,483.338l2.708,0l4.696,12.512l4.708,-12.512l2.713,0l0,14.887l-1.875,0l0,-12.383l-0.042,0l-4.65,12.383l-1.692,0l-4.65,-12.383l-0.041,0l0,12.383l-1.875,0l0,-14.887" style="fill:#231f20;fill-rule:nonzero;"/><path d="M391.829,492.075l5.05,0l-2.483,-6.946l-0.042,0l-2.525,6.946Zm1.483,-8.737l2.188,0l5.817,14.887l-2.188,0l-1.629,-4.483l-6.296,0l-1.667,4.483l-2.045,0l5.82,-14.887" style="fill:#231f20;fill-rule:nonzero;"/><path d="M408.542,490.196c1.854,0 3.441,-0.479 3.441,-2.646c0,-1.462 -0.796,-2.546 -2.65,-2.546l-4.921,0l0,5.192l4.13,0Zm-6.109,-6.858l7.005,0c2.795,0 4.524,1.52 4.524,3.9c0,1.791 -0.791,3.275 -2.587,3.775l0,0.041c1.733,0.334 2.088,1.604 2.233,3.063c0.125,1.458 0.042,3.087 0.875,4.108l-2.208,0c-0.563,-0.604 -0.254,-2.208 -0.546,-3.671c-0.208,-1.458 -0.562,-2.687 -2.479,-2.687l-4.838,0l0,6.358l-1.979,0l0,-14.887" style="fill:#231f20;fill-rule:nonzero;"/><path d="M416.367,483.338l1.979,0l0,7.42l7.55,-7.42l2.567,0l-6.28,6.004l6.529,8.883l-2.499,0l-5.384,-7.525l-2.483,2.313l0,5.212l-1.979,0l0,-14.887" style="fill:#231f20;fill-rule:nonzero;"/><path d="M437.95,492.075l5.05,0l-2.483,-6.946l-0.042,0l-2.525,6.946Zm1.483,-8.737l2.188,0l5.821,14.887l-2.192,0l-1.625,-4.483l-6.3,0l-1.667,4.483l-2.046,0l5.821,-14.887" style="fill:#231f20;fill-rule:nonzero;"/><path d="M452.725,482.983l1.525,0l-6.175,15.596l-1.525,0l6.175,-15.596" style="fill:#231f20;fill-rule:nonzero;"/><path d="M463.771,487.696c-0.229,-2.129 -1.646,-3.046 -3.692,-3.046c-1.666,0 -3.333,0.604 -3.333,2.546c0,1.833 2.375,2.104 4.775,2.65c2.375,0.537 4.754,1.375 4.754,4.292c0,3.17 -3.108,4.441 -5.821,4.441c-3.337,0 -6.15,-1.625 -6.15,-5.254l1.875,0c0,2.504 2.088,3.588 4.338,3.588c1.796,0 3.775,-0.563 3.775,-2.713c0,-2.042 -2.375,-2.396 -4.754,-2.917c-2.38,-0.525 -4.775,-1.212 -4.775,-3.941c0,-3.025 2.691,-4.359 5.4,-4.359c3.045,0 5.362,1.438 5.483,4.713l-1.875,0" style="fill:#231f20;fill-rule:nonzero;"/></svg>